<svg width="16" height="16" viewBox="0 0 16 16" fill="none" xmlns="http://www.w3.org/2000/svg">
<g clip-path="url(#clip0_544_18)">
<path fill-rule="evenodd" clip-rule="evenodd" d="M3.33317 0.666656C2.62593 0.666656 1.94765 0.947608 1.44755 1.44771C0.947456 1.9478 0.666504 2.62608 0.666504 3.33332V12.6667C0.666504 13.3739 0.947456 14.0522 1.44755 14.5523C1.94765 15.0524 2.62593 15.3333 3.33317 15.3333H12.6665C13.3737 15.3333 14.052 15.0524 14.5521 14.5523C15.0522 14.0522 15.3332 13.3739 15.3332 12.6667V3.33332C15.3332 2.62608 15.0522 1.9478 14.5521 1.44771C14.052 0.947608 13.3737 0.666656 12.6665 0.666656H3.33317ZM3.1105 2.99999C3.03752 3.02711 2.97189 3.0709 2.91882 3.12787C2.86575 3.18484 2.82672 3.25341 2.80484 3.32813C2.78296 3.40285 2.77882 3.48164 2.79277 3.55824C2.80671 3.63483 2.83836 3.70711 2.88517 3.76932L6.62784 8.73599L2.6845 12.966L2.65517 13H4.01984L7.23984 9.54732L9.7145 12.8327C9.77192 12.9087 9.84987 12.9668 9.93917 13H12.8872C12.96 12.9727 13.0255 12.9288 13.0785 12.8718C13.1314 12.8148 13.1703 12.7462 13.192 12.6715C13.2138 12.5968 13.2178 12.518 13.2037 12.4415C13.1897 12.365 13.158 12.2928 13.1112 12.2307L9.3685 7.26399L13.3445 2.99999H11.9778L8.75784 6.45332L6.28184 3.16799C6.22451 3.0917 6.14656 3.0334 6.05717 2.99999H3.1105ZM10.3638 12.032L4.28717 3.96799H5.63317L11.7092 12.0313L10.3638 12.032Z" fill="black"/>
</g>
<defs>
<clipPath id="clip0_544_18">
<rect width="16" height="16" fill="white"/>
</clipPath>
</defs>
</svg>
